<mxfile host="app.diagrams.net" agent="Mozilla/5.0 (X11; CrOS x86_64 14541.0.0) AppleWebKit/537.36 (KHTML, like Gecko) Chrome/134.0.0.0 Safari/537.36" version="26.2.3">
  <diagram name="PÃ¡gina-1" id="uzSgLHnSVwqkV9fDR9to">
    <mxGraphModel grid="1" page="1" gridSize="10" guides="1" tooltips="1" connect="1" arrows="1" fold="1" pageScale="1" pageWidth="827" pageHeight="1169" math="0" shadow="0">
      <root>
        <mxCell id="0" />
        <mxCell id="1" parent="0" />
        <mxCell id="Sht5JsCnyzfDN4hWbFr2-2" value="&lt;span style=&quot;font-size: 20px;&quot;&gt;S = A . B + C&lt;/span&gt;" style="rounded=1;arcSize=9;align=left;spacingLeft=5;strokeColor=none;html=1;strokeWidth=2;fontSize=12;fillColor=none;fontStyle=1" vertex="1" parent="1">
          <mxGeometry x="40" y="40" width="290" height="33" as="geometry" />
        </mxCell>
        <mxCell id="Sht5JsCnyzfDN4hWbFr2-3" value="&lt;span style=&quot;font-size: 20px;&quot;&gt;S = (C + A)&#39; . (B + D)&lt;/span&gt;" style="rounded=1;arcSize=9;align=left;spacingLeft=5;strokeColor=none;html=1;strokeWidth=2;fontSize=12;fillColor=none;fontStyle=1" vertex="1" parent="1">
          <mxGeometry x="40" y="320" width="290" height="33" as="geometry" />
        </mxCell>
        <mxCell id="Sht5JsCnyzfDN4hWbFr2-4" value="&lt;span style=&quot;font-size: 20px;&quot;&gt;&amp;nbsp; &amp;nbsp; &amp;nbsp;A&amp;nbsp; &amp;nbsp; B&amp;nbsp; &amp;nbsp; &amp;nbsp;C&amp;nbsp;&lt;/span&gt;" style="rounded=1;arcSize=9;align=left;spacingLeft=5;strokeColor=none;html=1;strokeWidth=2;fontSize=12;fillColor=none;" vertex="1" parent="1">
          <mxGeometry x="40" y="90" width="290" height="33" as="geometry" />
        </mxCell>
        <mxCell id="Sht5JsCnyzfDN4hWbFr2-8" value="" style="endArrow=none;html=1;rounded=0;entryX=0.128;entryY=0.995;entryDx=0;entryDy=0;entryPerimeter=0;" edge="1" parent="1">
          <mxGeometry width="50" height="50" relative="1" as="geometry">
            <mxPoint x="80" y="280" as="sourcePoint" />
            <mxPoint x="80.12" y="122.83500000000004" as="targetPoint" />
          </mxGeometry>
        </mxCell>
        <mxCell id="Sht5JsCnyzfDN4hWbFr2-9" value="" style="endArrow=none;html=1;rounded=0;entryX=0.128;entryY=0.995;entryDx=0;entryDy=0;entryPerimeter=0;" edge="1" parent="1">
          <mxGeometry width="50" height="50" relative="1" as="geometry">
            <mxPoint x="120" y="280" as="sourcePoint" />
            <mxPoint x="120" y="123" as="targetPoint" />
          </mxGeometry>
        </mxCell>
        <mxCell id="Sht5JsCnyzfDN4hWbFr2-10" value="" style="endArrow=none;html=1;rounded=0;entryX=0.128;entryY=0.995;entryDx=0;entryDy=0;entryPerimeter=0;" edge="1" parent="1">
          <mxGeometry width="50" height="50" relative="1" as="geometry">
            <mxPoint x="160" y="280" as="sourcePoint" />
            <mxPoint x="161" y="123" as="targetPoint" />
          </mxGeometry>
        </mxCell>
        <mxCell id="Sht5JsCnyzfDN4hWbFr2-12" value="" style="ellipse;whiteSpace=wrap;html=1;fillColor=#000000;" vertex="1" parent="1">
          <mxGeometry x="75" y="155" width="10" height="10" as="geometry" />
        </mxCell>
        <mxCell id="Sht5JsCnyzfDN4hWbFr2-13" value="" style="ellipse;whiteSpace=wrap;html=1;fillColor=#000000;" vertex="1" parent="1">
          <mxGeometry x="115" y="195" width="10" height="10" as="geometry" />
        </mxCell>
        <mxCell id="Sht5JsCnyzfDN4hWbFr2-15" value="" style="endArrow=none;html=1;rounded=0;" edge="1" parent="1">
          <mxGeometry width="50" height="50" relative="1" as="geometry">
            <mxPoint x="80" y="160" as="sourcePoint" />
            <mxPoint x="200" y="160" as="targetPoint" />
          </mxGeometry>
        </mxCell>
        <mxCell id="Sht5JsCnyzfDN4hWbFr2-16" value="" style="endArrow=none;html=1;rounded=0;exitX=0.5;exitY=0.5;exitDx=0;exitDy=0;exitPerimeter=0;" edge="1" parent="1" source="Sht5JsCnyzfDN4hWbFr2-13">
          <mxGeometry width="50" height="50" relative="1" as="geometry">
            <mxPoint x="93" y="182" as="sourcePoint" />
            <mxPoint x="200" y="200" as="targetPoint" />
          </mxGeometry>
        </mxCell>
        <mxCell id="Sht5JsCnyzfDN4hWbFr2-17" value="" style="verticalLabelPosition=bottom;shadow=0;dashed=0;align=center;html=1;verticalAlign=top;shape=mxgraph.electrical.logic_gates.logic_gate;operation=and;" vertex="1" parent="1">
          <mxGeometry x="200" y="140" width="120" height="80" as="geometry" />
        </mxCell>
        <mxCell id="Sht5JsCnyzfDN4hWbFr2-18" value="" style="endArrow=none;html=1;rounded=0;exitX=0.5;exitY=0.5;exitDx=0;exitDy=0;exitPerimeter=0;" edge="1" parent="1">
          <mxGeometry width="50" height="50" relative="1" as="geometry">
            <mxPoint x="160" y="240" as="sourcePoint" />
            <mxPoint x="320" y="240" as="targetPoint" />
          </mxGeometry>
        </mxCell>
        <mxCell id="Sht5JsCnyzfDN4hWbFr2-19" value="" style="verticalLabelPosition=bottom;shadow=0;dashed=0;align=center;html=1;verticalAlign=top;shape=mxgraph.electrical.logic_gates.logic_gate;operation=or;" vertex="1" parent="1">
          <mxGeometry x="320" y="180" width="120" height="80" as="geometry" />
        </mxCell>
        <mxCell id="Sht5JsCnyzfDN4hWbFr2-20" value="" style="endArrow=none;html=1;rounded=0;entryX=0.128;entryY=0.995;entryDx=0;entryDy=0;entryPerimeter=0;exitX=0;exitY=0.25;exitDx=0;exitDy=0;exitPerimeter=0;" edge="1" parent="1" source="Sht5JsCnyzfDN4hWbFr2-19">
          <mxGeometry width="50" height="50" relative="1" as="geometry">
            <mxPoint x="320" y="297" as="sourcePoint" />
            <mxPoint x="320" y="180" as="targetPoint" />
          </mxGeometry>
        </mxCell>
        <mxCell id="Sht5JsCnyzfDN4hWbFr2-21" value="&lt;span style=&quot;font-size: 20px;&quot;&gt;S&lt;/span&gt;" style="rounded=1;arcSize=9;align=left;spacingLeft=5;strokeColor=none;html=1;strokeWidth=2;fontSize=12;fillColor=none;" vertex="1" parent="1">
          <mxGeometry x="442" y="203.5" width="290" height="33" as="geometry" />
        </mxCell>
        <mxCell id="Sht5JsCnyzfDN4hWbFr2-22" value="&lt;span style=&quot;font-size: 20px;&quot;&gt;&amp;nbsp; &amp;nbsp; &amp;nbsp;A&amp;nbsp; &amp;nbsp; B&amp;nbsp; &amp;nbsp; &amp;nbsp;C&amp;nbsp; &amp;nbsp; D&amp;nbsp;&lt;/span&gt;" style="rounded=1;arcSize=9;align=left;spacingLeft=5;strokeColor=none;html=1;strokeWidth=2;fontSize=12;fillColor=none;" vertex="1" parent="1">
          <mxGeometry x="40" y="370" width="290" height="33" as="geometry" />
        </mxCell>
        <mxCell id="Sht5JsCnyzfDN4hWbFr2-23" value="" style="endArrow=none;html=1;rounded=0;entryX=0.136;entryY=0.997;entryDx=0;entryDy=0;entryPerimeter=0;" edge="1" parent="1" target="Sht5JsCnyzfDN4hWbFr2-22">
          <mxGeometry width="50" height="50" relative="1" as="geometry">
            <mxPoint x="79" y="640" as="sourcePoint" />
            <mxPoint x="300" y="530" as="targetPoint" />
          </mxGeometry>
        </mxCell>
        <mxCell id="Sht5JsCnyzfDN4hWbFr2-24" value="" style="endArrow=none;html=1;rounded=0;entryX=0.136;entryY=0.997;entryDx=0;entryDy=0;entryPerimeter=0;" edge="1" parent="1">
          <mxGeometry width="50" height="50" relative="1" as="geometry">
            <mxPoint x="120" y="640" as="sourcePoint" />
            <mxPoint x="120" y="401" as="targetPoint" />
          </mxGeometry>
        </mxCell>
        <mxCell id="Sht5JsCnyzfDN4hWbFr2-25" value="" style="endArrow=none;html=1;rounded=0;entryX=0.136;entryY=0.997;entryDx=0;entryDy=0;entryPerimeter=0;" edge="1" parent="1">
          <mxGeometry width="50" height="50" relative="1" as="geometry">
            <mxPoint x="160" y="640" as="sourcePoint" />
            <mxPoint x="160" y="403" as="targetPoint" />
          </mxGeometry>
        </mxCell>
        <mxCell id="Sht5JsCnyzfDN4hWbFr2-26" value="" style="endArrow=none;html=1;rounded=0;entryX=0.136;entryY=0.997;entryDx=0;entryDy=0;entryPerimeter=0;" edge="1" parent="1">
          <mxGeometry width="50" height="50" relative="1" as="geometry">
            <mxPoint x="201" y="640" as="sourcePoint" />
            <mxPoint x="201" y="401" as="targetPoint" />
          </mxGeometry>
        </mxCell>
        <mxCell id="Sht5JsCnyzfDN4hWbFr2-27" value="" style="endArrow=none;html=1;rounded=0;" edge="1" parent="1">
          <mxGeometry width="50" height="50" relative="1" as="geometry">
            <mxPoint x="240" y="440" as="sourcePoint" />
            <mxPoint x="160" y="440" as="targetPoint" />
          </mxGeometry>
        </mxCell>
        <mxCell id="Sht5JsCnyzfDN4hWbFr2-28" value="" style="endArrow=none;html=1;rounded=0;" edge="1" parent="1">
          <mxGeometry width="50" height="50" relative="1" as="geometry">
            <mxPoint x="240" y="480" as="sourcePoint" />
            <mxPoint x="80" y="480" as="targetPoint" />
          </mxGeometry>
        </mxCell>
        <mxCell id="Sht5JsCnyzfDN4hWbFr2-29" value="" style="endArrow=none;html=1;rounded=0;" edge="1" parent="1">
          <mxGeometry width="50" height="50" relative="1" as="geometry">
            <mxPoint x="120" y="560" as="sourcePoint" />
            <mxPoint x="240" y="560" as="targetPoint" />
          </mxGeometry>
        </mxCell>
        <mxCell id="Sht5JsCnyzfDN4hWbFr2-30" value="" style="endArrow=none;html=1;rounded=0;" edge="1" parent="1">
          <mxGeometry width="50" height="50" relative="1" as="geometry">
            <mxPoint x="200" y="600" as="sourcePoint" />
            <mxPoint x="240" y="600" as="targetPoint" />
          </mxGeometry>
        </mxCell>
        <mxCell id="Sht5JsCnyzfDN4hWbFr2-31" value="" style="ellipse;whiteSpace=wrap;html=1;fillColor=#000000;" vertex="1" parent="1">
          <mxGeometry x="155" y="234" width="10" height="10" as="geometry" />
        </mxCell>
        <mxCell id="Sht5JsCnyzfDN4hWbFr2-32" value="" style="ellipse;whiteSpace=wrap;html=1;fillColor=#000000;" vertex="1" parent="1">
          <mxGeometry x="155" y="434" width="10" height="10" as="geometry" />
        </mxCell>
        <mxCell id="Sht5JsCnyzfDN4hWbFr2-33" value="" style="ellipse;whiteSpace=wrap;html=1;fillColor=#000000;" vertex="1" parent="1">
          <mxGeometry x="75" y="475" width="10" height="10" as="geometry" />
        </mxCell>
        <mxCell id="Sht5JsCnyzfDN4hWbFr2-34" value="" style="ellipse;whiteSpace=wrap;html=1;fillColor=#000000;" vertex="1" parent="1">
          <mxGeometry x="115" y="554" width="10" height="10" as="geometry" />
        </mxCell>
        <mxCell id="Sht5JsCnyzfDN4hWbFr2-35" value="" style="ellipse;whiteSpace=wrap;html=1;fillColor=#000000;" vertex="1" parent="1">
          <mxGeometry x="196" y="594" width="10" height="10" as="geometry" />
        </mxCell>
        <mxCell id="Sht5JsCnyzfDN4hWbFr2-38" value="" style="verticalLabelPosition=bottom;shadow=0;dashed=0;align=center;html=1;verticalAlign=top;shape=mxgraph.electrical.logic_gates.logic_gate;operation=or;negating=1;negSize=0.15;" vertex="1" parent="1">
          <mxGeometry x="240" y="420" width="160" height="80" as="geometry" />
        </mxCell>
        <mxCell id="Sht5JsCnyzfDN4hWbFr2-39" value="" style="verticalLabelPosition=bottom;shadow=0;dashed=0;align=center;html=1;verticalAlign=top;shape=mxgraph.electrical.logic_gates.logic_gate;operation=or;" vertex="1" parent="1">
          <mxGeometry x="240" y="540" width="160" height="80" as="geometry" />
        </mxCell>
        <mxCell id="Sht5JsCnyzfDN4hWbFr2-40" value="" style="verticalLabelPosition=bottom;shadow=0;dashed=0;align=center;html=1;verticalAlign=top;shape=mxgraph.electrical.logic_gates.logic_gate;operation=and;" vertex="1" parent="1">
          <mxGeometry x="400" y="479" width="160" height="80" as="geometry" />
        </mxCell>
        <mxCell id="Sht5JsCnyzfDN4hWbFr2-41" value="" style="endArrow=none;html=1;rounded=0;entryX=1;entryY=0.5;entryDx=0;entryDy=0;entryPerimeter=0;" edge="1" parent="1" target="Sht5JsCnyzfDN4hWbFr2-38">
          <mxGeometry width="50" height="50" relative="1" as="geometry">
            <mxPoint x="400" y="500" as="sourcePoint" />
            <mxPoint x="470" y="520" as="targetPoint" />
          </mxGeometry>
        </mxCell>
        <mxCell id="Sht5JsCnyzfDN4hWbFr2-42" value="" style="endArrow=none;html=1;rounded=0;entryX=1;entryY=0.5;entryDx=0;entryDy=0;entryPerimeter=0;" edge="1" parent="1">
          <mxGeometry width="50" height="50" relative="1" as="geometry">
            <mxPoint x="399" y="580" as="sourcePoint" />
            <mxPoint x="399" y="540" as="targetPoint" />
          </mxGeometry>
        </mxCell>
        <mxCell id="Sht5JsCnyzfDN4hWbFr2-43" value="&lt;span style=&quot;font-size: 20px;&quot;&gt;S&lt;/span&gt;" style="rounded=1;arcSize=9;align=left;spacingLeft=5;strokeColor=none;html=1;strokeWidth=2;fontSize=12;fillColor=none;" vertex="1" parent="1">
          <mxGeometry x="562" y="503.5" width="290" height="33" as="geometry" />
        </mxCell>
      </root>
    </mxGraphModel>
  </diagram>
</mxfile>
